<?xml version="1.0" encoding="UTF-8" standalone="no"?>
<!DOCTYPE svg PUBLIC "-//W3C//DTD SVG 1.1//EN"
 "http://www.w3.org/Graphics/SVG/1.1/DTD/svg11.dtd">
<!-- Generated by graphviz version 2.43.0 (0)
 -->
<!-- Title: pipeline Pages: 1 -->
<svg width="1304pt" height="330pt"
 viewBox="0.00 0.00 1303.68 330.20" xmlns="http://www.w3.org/2000/svg" xmlns:xlink="http://www.w3.org/1999/xlink">
<g id="graph0" class="graph" transform="scale(1 1) rotate(0) translate(21.6 308.6)">
<title>pipeline</title>
<polygon fill="#0d1117" stroke="transparent" points="-21.6,21.6 -21.6,-308.6 1282.08,-308.6 1282.08,21.6 -21.6,21.6"/>
<g id="clust1" class="cluster">
<title>cluster_cnn</title>
<path fill="#0d1117" stroke="#30363d" d="M420,-46C420,-46 599,-46 599,-46 605,-46 611,-52 611,-58 611,-58 611,-267 611,-267 611,-273 605,-279 599,-279 599,-279 420,-279 420,-279 414,-279 408,-273 408,-267 408,-267 408,-58 408,-58 408,-52 414,-46 420,-46"/>
<text text-anchor="middle" x="509.5" y="-267" font-family="Helvetica,sans-Serif" font-size="10.00" fill="#8b949e">four 3D CNN families · 60 checkpoints</text>
</g>
<!-- scan -->
<g id="node1" class="node">
<title>scan</title>
<path fill="#1f2a37" stroke="#58a6ff" d="M84,-77C84,-77 12,-77 12,-77 6,-77 0,-71 0,-65 0,-65 0,-53 0,-53 0,-47 6,-41 12,-41 12,-41 84,-41 84,-41 90,-41 96,-47 96,-53 96,-53 96,-65 96,-65 96,-71 90,-77 84,-77"/>
<text text-anchor="middle" x="48" y="-62.2" font-family="Helvetica,sans-Serif" font-size="11.00" fill="#c9d1d9">DaT SPECT</text>
<text text-anchor="middle" x="48" y="-50.2" font-family="Helvetica,sans-Serif" font-size="11.00" fill="#c9d1d9">NIfTI volume</text>
</g>
<!-- pre -->
<g id="node2" class="node">
<title>pre</title>
<path fill="#161b22" stroke="#8b949e" d="M226,-83C226,-83 141,-83 141,-83 135,-83 129,-77 129,-71 129,-71 129,-47 129,-47 129,-41 135,-35 141,-35 141,-35 226,-35 226,-35 232,-35 238,-41 238,-47 238,-47 238,-71 238,-71 238,-77 232,-83 226,-83"/>
<text text-anchor="middle" x="183.5" y="-68.2" font-family="Helvetica,sans-Serif" font-size="11.00" fill="#c9d1d9">brain mask</text>
<text text-anchor="middle" x="183.5" y="-56.2" font-family="Helvetica,sans-Serif" font-size="11.00" fill="#c9d1d9">striatal centre</text>
<text text-anchor="middle" x="183.5" y="-44.2" font-family="Helvetica,sans-Serif" font-size="11.00" fill="#c9d1d9">reference level</text>
</g>
<!-- scan&#45;&gt;pre -->
<g id="edge1" class="edge">
<title>scan&#45;&gt;pre</title>
<path fill="none" stroke="#8b949e" d="M96.07,-59C104.61,-59 113.62,-59 122.47,-59"/>
<polygon fill="#8b949e" stroke="#8b949e" points="122.56,-61.1 128.56,-59 122.56,-56.9 122.56,-61.1"/>
</g>
<!-- g96 -->
<g id="node3" class="node">
<title>g96</title>
<path fill="#161b22" stroke="#30363d" d="M371,-144C371,-144 283,-144 283,-144 277,-144 271,-138 271,-132 271,-132 271,-120 271,-120 271,-114 277,-108 283,-108 283,-108 371,-108 371,-108 377,-108 383,-114 383,-120 383,-120 383,-132 383,-132 383,-138 377,-144 371,-144"/>
<text text-anchor="middle" x="327" y="-123.2" font-family="Helvetica,sans-Serif" font-size="11.00" fill="#c9d1d9">96³ @ 1.33 mm</text>
</g>
<!-- pre&#45;&gt;g96 -->
<g id="edge2" class="edge">
<title>pre&#45;&gt;g96</title>
<path fill="none" stroke="#8b949e" d="M235.58,-83.19C250.82,-90.4 267.38,-98.24 282.11,-105.22"/>
<polygon fill="#8b949e" stroke="#8b949e" points="281.55,-107.28 287.87,-107.95 283.35,-103.48 281.55,-107.28"/>
</g>
<!-- g64 -->
<g id="node4" class="node">
<title>g64</title>
<path fill="#161b22" stroke="#30363d" d="M550,-36C550,-36 469,-36 469,-36 463,-36 457,-30 457,-24 457,-24 457,-12 457,-12 457,-6 463,0 469,0 469,0 550,0 550,0 556,0 562,-6 562,-12 562,-12 562,-24 562,-24 562,-30 556,-36 550,-36"/>
<text text-anchor="middle" x="509.5" y="-15.2" font-family="Helvetica,sans-Serif" font-size="11.00" fill="#c9d1d9">64³ @ 2.0 mm</text>
</g>
<!-- pre&#45;&gt;g64 -->
<g id="edge3" class="edge">
<title>pre&#45;&gt;g64</title>
<path fill="none" stroke="#8b949e" d="M238,-52.23C296.65,-44.81 390.41,-32.94 450.7,-25.31"/>
<polygon fill="#8b949e" stroke="#8b949e" points="451.11,-27.38 456.79,-24.54 450.58,-23.21 451.11,-27.38"/>
</g>
<!-- sm0 -->
<g id="node5" class="node">
<title>sm0</title>
<path fill="#161b22" stroke="#30363d" d="M559,-252C559,-252 460,-252 460,-252 454,-252 448,-246 448,-240 448,-240 448,-228 448,-228 448,-222 454,-216 460,-216 460,-216 559,-216 559,-216 565,-216 571,-222 571,-228 571,-228 571,-240 571,-240 571,-246 565,-252 559,-252"/>
<text text-anchor="middle" x="509.5" y="-237.2" font-family="Helvetica,sans-Serif" font-size="11.00" fill="#c9d1d9">sm0 &#160;DatNet ×15</text>
<text text-anchor="middle" x="509.5" y="-225.2" font-family="Helvetica,sans-Serif" font-size="11.00" fill="#c9d1d9">0.2694</text>
</g>
<!-- g96&#45;&gt;sm0 -->
<g id="edge4" class="edge">
<title>g96&#45;&gt;sm0</title>
<path fill="none" stroke="#8b949e" d="M341.24,-144.23C355.64,-162.74 380.33,-190.9 408,-207 418.47,-213.09 430.34,-217.84 442.17,-221.54"/>
<polygon fill="#8b949e" stroke="#8b949e" points="441.62,-223.57 447.97,-223.27 442.82,-219.54 441.62,-223.57"/>
</g>
<!-- sia -->
<g id="node6" class="node">
<title>sia</title>
<path fill="#161b22" stroke="#30363d" d="M547,-198C547,-198 472,-198 472,-198 466,-198 460,-192 460,-186 460,-186 460,-174 460,-174 460,-168 466,-162 472,-162 472,-162 547,-162 547,-162 553,-162 559,-168 559,-174 559,-174 559,-186 559,-186 559,-192 553,-198 547,-198"/>
<text text-anchor="middle" x="509.5" y="-183.2" font-family="Helvetica,sans-Serif" font-size="11.00" fill="#c9d1d9">siamese ×15</text>
<text text-anchor="middle" x="509.5" y="-171.2" font-family="Helvetica,sans-Serif" font-size="11.00" fill="#c9d1d9">0.2740</text>
</g>
<!-- g96&#45;&gt;sia -->
<g id="edge5" class="edge">
<title>g96&#45;&gt;sia</title>
<path fill="none" stroke="#8b949e" d="M379.92,-144.05C389.23,-147.14 398.88,-150.24 408,-153 422.81,-157.48 438.95,-161.99 453.89,-166"/>
<polygon fill="#8b949e" stroke="#8b949e" points="453.42,-168.05 459.76,-167.57 454.51,-163.99 453.42,-168.05"/>
</g>
<!-- sl -->
<g id="node7" class="node">
<title>sl</title>
<path fill="#161b22" stroke="#30363d" d="M560,-144C560,-144 459,-144 459,-144 453,-144 447,-138 447,-132 447,-132 447,-120 447,-120 447,-114 453,-108 459,-108 459,-108 560,-108 560,-108 566,-108 572,-114 572,-120 572,-120 572,-132 572,-132 572,-138 566,-144 560,-144"/>
<text text-anchor="middle" x="509.5" y="-129.2" font-family="Helvetica,sans-Serif" font-size="11.00" fill="#c9d1d9">slicenet 2.5D ×15</text>
<text text-anchor="middle" x="509.5" y="-117.2" font-family="Helvetica,sans-Serif" font-size="11.00" fill="#c9d1d9">0.2917</text>
</g>
<!-- g96&#45;&gt;sl -->
<g id="edge6" class="edge">
<title>g96&#45;&gt;sl</title>
<path fill="none" stroke="#8b949e" d="M383.14,-126C401.21,-126 421.5,-126 440.41,-126"/>
<polygon fill="#8b949e" stroke="#8b949e" points="440.77,-128.1 446.77,-126 440.77,-123.9 440.77,-128.1"/>
</g>
<!-- md -->
<g id="node8" class="node">
<title>md</title>
<path fill="#161b22" stroke="#30363d" d="M573,-90C573,-90 446,-90 446,-90 440,-90 434,-84 434,-78 434,-78 434,-66 434,-66 434,-60 440,-54 446,-54 446,-54 573,-54 573,-54 579,-54 585,-60 585,-66 585,-66 585,-78 585,-78 585,-84 579,-90 573,-90"/>
<text text-anchor="middle" x="509.5" y="-75.2" font-family="Helvetica,sans-Serif" font-size="11.00" fill="#c9d1d9">med3d ResNet&#45;10 ×15</text>
<text text-anchor="middle" x="509.5" y="-63.2" font-family="Helvetica,sans-Serif" font-size="11.00" fill="#c9d1d9">0.2833</text>
</g>
<!-- g96&#45;&gt;md -->
<g id="edge7" class="edge">
<title>g96&#45;&gt;md</title>
<path fill="none" stroke="#8b949e" d="M379.92,-107.95C389.23,-104.86 398.88,-101.76 408,-99 416.15,-96.53 424.7,-94.06 433.24,-91.67"/>
<polygon fill="#8b949e" stroke="#8b949e" points="433.92,-93.65 439.14,-90.02 432.79,-89.61 433.92,-93.65"/>
</g>
<!-- sbr -->
<g id="node10" class="node">
<title>sbr</title>
<path fill="#161b22" stroke="#3fb950" d="M786,-81C786,-81 648,-81 648,-81 642,-81 636,-75 636,-69 636,-69 636,-45 636,-45 636,-39 642,-33 648,-33 648,-33 786,-33 786,-33 792,-33 798,-39 798,-45 798,-45 798,-69 798,-69 798,-75 792,-81 786,-81"/>
<text text-anchor="middle" x="717" y="-66.2" font-family="Helvetica,sans-Serif" font-size="11.00" fill="#c9d1d9">20 binding&#45;ratio features</text>
<text text-anchor="middle" x="717" y="-54.2" font-family="Helvetica,sans-Serif" font-size="11.00" fill="#c9d1d9">LightGBM ×15</text>
<text text-anchor="middle" x="717" y="-42.2" font-family="Helvetica,sans-Serif" font-size="11.00" fill="#c9d1d9">0.4404</text>
</g>
<!-- g64&#45;&gt;sbr -->
<g id="edge12" class="edge">
<title>g64&#45;&gt;sbr</title>
<path fill="none" stroke="#8b949e" d="M562.09,-27.79C582.61,-31.68 606.78,-36.27 629.81,-40.64"/>
<polygon fill="#8b949e" stroke="#8b949e" points="629.67,-42.75 635.96,-41.81 630.45,-38.63 629.67,-42.75"/>
</g>
<!-- mean -->
<g id="node9" class="node">
<title>mean</title>
<ellipse fill="#161b22" stroke="#30363d" cx="717" cy="-126" rx="70.37" ry="18"/>
<text text-anchor="middle" x="717" y="-123.2" font-family="Helvetica,sans-Serif" font-size="11.00" fill="#c9d1d9">mean of logits</text>
</g>
<!-- sm0&#45;&gt;mean -->
<g id="edge8" class="edge">
<title>sm0&#45;&gt;mean</title>
<path fill="none" stroke="#8b949e" d="M571.17,-221.84C584.66,-218.01 598.61,-213.13 611,-207 642.33,-191.49 673.43,-165.89 693.55,-147.62"/>
<polygon fill="#8b949e" stroke="#8b949e" points="695.17,-148.98 698.17,-143.37 692.33,-145.88 695.17,-148.98"/>
</g>
<!-- sia&#45;&gt;mean -->
<g id="edge9" class="edge">
<title>sia&#45;&gt;mean</title>
<path fill="none" stroke="#8b949e" d="M559.2,-167.2C589.93,-159.13 629.67,-148.69 661.45,-140.33"/>
<polygon fill="#8b949e" stroke="#8b949e" points="662.02,-142.35 667.29,-138.8 660.96,-138.29 662.02,-142.35"/>
</g>
<!-- sl&#45;&gt;mean -->
<g id="edge10" class="edge">
<title>sl&#45;&gt;mean</title>
<path fill="none" stroke="#8b949e" d="M572.16,-126C593.55,-126 617.8,-126 640.2,-126"/>
<polygon fill="#8b949e" stroke="#8b949e" points="640.47,-128.1 646.47,-126 640.47,-123.9 640.47,-128.1"/>
</g>
<!-- md&#45;&gt;mean -->
<g id="edge11" class="edge">
<title>md&#45;&gt;mean</title>
<path fill="none" stroke="#8b949e" d="M579.21,-90.06C605.9,-97.07 636.03,-104.99 661.21,-111.6"/>
<polygon fill="#8b949e" stroke="#8b949e" points="660.83,-113.67 667.16,-113.17 661.89,-109.61 660.83,-113.67"/>
</g>
<!-- fuse -->
<g id="node11" class="node">
<title>fuse</title>
<ellipse fill="#161b22" stroke="#30363d" cx="949.24" cy="-86" rx="103.48" ry="25.41"/>
<text text-anchor="middle" x="949.24" y="-89.2" font-family="Helvetica,sans-Serif" font-size="11.00" fill="#c9d1d9">0.8 · CNN + 0.2 · SBR</text>
<text text-anchor="middle" x="949.24" y="-77.2" font-family="Helvetica,sans-Serif" font-size="11.00" fill="#c9d1d9">logit space</text>
</g>
<!-- mean&#45;&gt;fuse -->
<g id="edge13" class="edge">
<title>mean&#45;&gt;fuse</title>
<path fill="none" stroke="#8b949e" d="M775.8,-115.96C800.69,-111.63 830.38,-106.48 858.06,-101.67"/>
<polygon fill="#8b949e" stroke="#8b949e" points="858.75,-103.68 864.3,-100.58 858.03,-99.54 858.75,-103.68"/>
<text text-anchor="middle" x="822" y="-110.8" font-family="Helvetica,sans-Serif" font-size="9.00" fill="#8b949e">0.8</text>
</g>
<!-- sbr&#45;&gt;fuse -->
<g id="edge14" class="edge">
<title>sbr&#45;&gt;fuse</title>
<path fill="none" stroke="#8b949e" d="M798.2,-67.1C815.08,-69.23 833.06,-71.49 850.5,-73.69"/>
<polygon fill="#8b949e" stroke="#8b949e" points="850.68,-75.83 856.89,-74.49 851.2,-71.66 850.68,-75.83"/>
<text text-anchor="middle" x="822" y="-72.8" font-family="Helvetica,sans-Serif" font-size="9.00" fill="#8b949e">0.2</text>
</g>
<!-- out -->
<g id="node12" class="node">
<title>out</title>
<path fill="#1c2d22" stroke="#3fb950" d="M1248.48,-104C1248.48,-104 1097.48,-104 1097.48,-104 1091.48,-104 1085.48,-98 1085.48,-92 1085.48,-92 1085.48,-80 1085.48,-80 1085.48,-74 1091.48,-68 1097.48,-68 1097.48,-68 1248.48,-68 1248.48,-68 1254.48,-68 1260.48,-74 1260.48,-80 1260.48,-80 1260.48,-92 1260.48,-92 1260.48,-98 1254.48,-104 1248.48,-104"/>
<text text-anchor="middle" x="1172.98" y="-89.2" font-family="Helvetica,sans-Serif" font-size="11.00" fill="#c9d1d9">p(abnormal)</text>
<text text-anchor="middle" x="1172.98" y="-77.2" font-family="Helvetica,sans-Serif" font-size="11.00" fill="#c9d1d9">CV 0.2472 · AUROC 0.9607</text>
</g>
<!-- fuse&#45;&gt;out -->
<g id="edge15" class="edge">
<title>fuse&#45;&gt;out</title>
<path fill="none" stroke="#8b949e" d="M1052.67,-86C1061.52,-86 1070.44,-86 1079.21,-86"/>
<polygon fill="#8b949e" stroke="#8b949e" points="1079.25,-88.1 1085.25,-86 1079.25,-83.9 1079.25,-88.1"/>
</g>
</g>
</svg>
